<?xml version="1.0" standalone="no"?>
<!DOCTYPE svg PUBLIC "-//W3C//DTD SVG 20010904//EN"
 "http://www.w3.org/TR/2001/REC-SVG-20010904/DTD/svg10.dtd">
<svg version="1.0" xmlns="http://www.w3.org/2000/svg"
 width="260.000000pt" height="260.000000pt" viewBox="0 0 260.000000 260.000000"
 preserveAspectRatio="xMidYMid meet">
<metadata>
Created by potrace 1.14, written by Peter Selinger 2001-2017
</metadata>
<g transform="translate(0.000000,260.000000) scale(0.100000,-0.100000)"
fill="#000000" stroke="none">
<path d="M492 2071 c2 -27 8 -36 28 -42 14 -3 44 -12 68 -18 24 -7 52 -21 63
-32 18 -18 19 -39 19 -682 0 -573 -2 -665 -15 -684 -10 -14 -39 -28 -86 -40
-72 -18 -92 -35 -83 -69 5 -18 18 -19 305 -19 l300 0 -3 34 c-3 33 -5 35 -73
53 -113 31 -105 2 -105 375 l0 323 388 -2 387 -3 0 -317 c0 -369 7 -344 -110
-376 -68 -18 -70 -20 -73 -53 l-3 -34 300 0 c287 0 300 1 305 19 6 23 -10 56
-28 56 -30 0 -119 33 -137 51 -18 18 -19 39 -19 684 0 645 1 666 19 684 11 11
39 25 63 32 24 6 54 15 68 18 20 6 26 15 28 42 l3 34 -298 -1 c-216 -1 -298
-5 -301 -13 -2 -7 -1 -22 2 -35 5 -19 16 -25 64 -35 73 -14 99 -32 112 -79 5
-21 10 -151 10 -304 l0 -268 -390 0 -390 0 0 299 0 300 26 20 c14 11 53 26 85
32 49 10 60 16 65 35 12 47 15 47 -299 48 l-298 1 3 -34z"/>
</g>
</svg>
